Coordinates
version=1
nRows=6
nColumns=36
inDegrees=yes

Units are S.I. units (second, meters, Newtons, ...)
If the header above contains a line with 'inDegrees', this indicates whether rotational values are in degrees (yes) or radians (no).

endheader
time	pelvis_tilt	pelvis_list	pelvis_rotation	pelvis_tx	pelvis_ty	pelvis_tz	hip_flexion_r	hip_adduction_r	hip_rotation_r	knee_angle_r	knee_angle_r_beta	ankle_angle_r	subtalar_angle_r	mtp_angle_r	hip_flexion_l	hip_adduction_l	hip_rotation_l	knee_angle_l	knee_angle_l_beta	ankle_angle_l	subtalar_angle_l	mtp_angle_l	lumbar_extension	lumbar_bending	lumbar_rotation	arm_flex_r	arm_add_r	arm_rot_r	elbow_flex_r	pro_sup_r	arm_flex_l	arm_add_l	arm_rot_l	elbow_flex_l	pro_sup_l
      0.00000000	     -2.45739183	      2.39594112	     -3.92319641	      0.35507918	      0.92875028	      0.10103169	      4.39900914	      5.00076714	      2.44328781	     12.29315847	      0.21455609	      5.78995049	     -4.45641471	     -6.84947337	     23.05377351	     -5.11086369	     -0.79085395	     53.35326741	      0.93119018	    -31.54500002	     -7.33619092	     -6.84947337	      2.01946217	     -2.04496245	     -2.83458907	     50.15229853	      7.03203359	     62.80365694	    133.19637324	    103.86335159	     39.79935177	     13.80500290	     61.54154419	    114.18822166	    101.33320822
      0.01666670	     -3.94713341	      3.36644742	     -5.18735338	      0.35828671	      0.92658105	      0.10177331	      5.32583509	      4.05059905	      3.73981365	     11.06149717	      0.19305955	      6.47698357	     -6.18749286	     -6.90048880	     23.81664257	     -5.19325364	     -3.15717276	     51.93209434	      0.90638603	    -30.31902431	     -3.44161177	     -6.90048880	      4.72360904	     -1.98755646	     -2.68183650	     51.96517253	      8.29650092	     63.50298151	    134.37841301	    103.93365563	     40.02824562	     12.61660848	     61.98751664	    118.46094561	     99.85994105
      0.03333330	     -4.42733281	      3.83288627	     -5.96926535	      0.36036092	      0.92477366	      0.10296269	      5.07768359	      3.40793371	      2.88025515	      9.88997569	      0.17261264	      5.61857828	     -5.57650915	     -6.98009217	     23.80861433	     -5.60060790	     -5.04336071	     51.22600217	      0.89406240	    -31.97398223	     -4.33770603	     -6.98009217	      5.94402630	     -2.34811242	     -1.78101059	     52.17188385	      8.44364616	     63.91306458	    135.36238828	    101.99358657	     40.17036396	     12.35294070	     61.90266804	    120.32791839	     97.09023162
      0.05000000	     -4.31399964	      4.29837007	     -5.88065054	      0.36120112	      0.92189927	      0.10289026	      4.82433637	      2.97612300	      2.67517520	      9.94237499	      0.17352718	      6.59476871	     -5.05122482	     -7.04567883	     23.86496005	     -5.27199283	     -5.25802961	     51.47526983	      0.89841294	    -31.83732373	     -3.12681199	     -7.04567883	      5.92210550	     -2.84649595	     -1.86718921	     52.48149162	      8.79776101	     65.59267196	    135.42918793	    100.51792154	     40.64060263	     12.24691165	     62.14382933	    121.09645063	     94.54261797
      0.06666670	     -4.07302571	      4.54659616	     -5.66508423	      0.36194746	      0.92624280	      0.10318419	      4.38680114	      2.67159796	      2.08723595	      9.77117683	      0.17053921	      7.22854132	     -5.19241997	     -7.07247896	     23.63648874	     -5.23476353	     -5.58493047	     51.28304461	      0.89505798	    -33.50962847	     -2.41696861	     -7.07247896	      5.56773029	     -3.05323325	     -2.10000619	     52.42579489	      8.83903731	     67.48523575	    135.21213008	    100.09953403	     40.83689226	     12.13105306	     62.57085240	    120.89313358	     93.29334820
      0.08333330	     -3.73503830	      4.70315357	     -5.21040571	      0.36192866	      0.92692638	      0.10305735	      3.68410840	      2.56383748	      1.62202411	      9.12639863	      0.15928570	      7.68834241	     -4.83804594	     -7.09804562	     23.63050549	     -5.13826619	     -5.42471249	     51.38684332	      0.89686961	    -35.62086493	     -1.89585687	     -7.09804562	      5.13648359	     -3.20037393	     -2.38528437	     52.58156661	      8.75299221	     68.93666535	    134.33254287	     99.84844679	     40.94268014	     12.46216977	     63.28930034	    120.29579361	     91.76532139
